<?xml version="1.0" standalone="no"?>
<!DOCTYPE svg PUBLIC "-//W3C//DTD SVG 20010904//EN"
 "http://www.w3.org/TR/2001/REC-SVG-20010904/DTD/svg10.dtd">
<svg version="1.0" xmlns="http://www.w3.org/2000/svg"
 width="139.000000pt" height="139.000000pt" viewBox="0 0 139.000000 139.000000"
 preserveAspectRatio="xMidYMid meet">
<metadata>
Created by potrace 1.11, written by Peter Selinger 2001-2013
</metadata>
<g transform="translate(0.000000,139.000000) scale(0.100000,-0.100000)"
fill="#000000" stroke="none">
<path d="M906 1156 c-14 -19 -26 -37 -26 -39 0 -2 29 -16 65 -32 57 -24 69
-34 97 -81 18 -30 38 -54 45 -54 12 0 53 51 53 67 0 4 -28 19 -61 33 -53 21
-67 32 -95 76 -19 29 -38 55 -43 58 -5 3 -21 -10 -35 -28z m58 -37 l18 -31
-31 16 c-31 16 -37 27 -24 39 11 12 18 8 37 -24z m146 -110 c0 -4 -6 -12 -14
-18 -10 -9 -17 -6 -30 13 -22 34 -21 36 14 23 17 -6 30 -14 30 -18z"/>
<path d="M996 1162 c-8 -14 5 -52 18 -52 20 0 34 20 29 41 -5 19 -37 26 -47
11z m34 -17 c0 -8 -4 -15 -10 -15 -5 0 -10 7 -10 15 0 8 5 15 10 15 6 0 10 -7
10 -15z"/>
<path d="M1059 1094 c-10 -13 -10 -17 2 -25 27 -17 49 -10 49 16 0 29 -30 35
-51 9z m41 -2 c0 -13 -12 -22 -22 -16 -10 6 -1 24 13 24 5 0 9 -4 9 -8z"/>
<path d="M549 952 l-316 -135 -43 -77 c-24 -43 -44 -82 -44 -86 0 -5 20 -17
45 -26 36 -14 65 -16 156 -11 l113 6 -14 -44 c-7 -24 -24 -69 -36 -99 -12 -30
-24 -71 -25 -90 -2 -19 -7 -50 -11 -69 l-7 -35 37 23 c20 13 40 21 43 18 7 -7
61 20 149 74 35 21 66 39 68 39 10 0 25 -70 30 -139 6 -69 11 -84 55 -150 8
-12 20 -6 67 30 32 24 62 47 66 50 5 3 24 68 43 145 18 76 57 233 85 348 29
118 47 212 42 215 -5 3 -20 29 -32 58 -21 50 -24 52 -76 64 -30 7 -57 16 -60
21 -3 4 -8 8 -12 7 -4 0 -149 -62 -323 -137z m396 89 c36 -10 43 -16 63 -63
20 -48 21 -53 5 -70 -25 -28 -43 -22 -113 41 l-64 58 17 27 c12 17 24 25 35
22 9 -3 35 -10 57 -15z m-135 -9 c0 -5 -11 -14 -25 -20 -14 -6 -25 -16 -25
-21 0 -12 -97 -111 -110 -111 -5 0 -10 -4 -10 -9 0 -5 -40 -50 -90 -101 -58
-60 -94 -89 -102 -84 -7 4 -10 4 -6 -1 4 -4 -3 -15 -15 -25 -25 -19 -157 -37
-157 -21 0 6 -7 8 -15 5 -24 -10 -63 4 -67 24 -3 17 45 117 63 128 5 3 18 0
27 -8 15 -12 16 -11 3 4 -12 16 -10 19 15 28 16 6 64 27 107 46 87 38 91 39
81 22 -4 -7 4 -3 17 9 28 25 114 64 123 56 3 -4 14 1 23 9 10 9 33 19 50 23
18 3 36 11 39 17 4 5 20 16 38 24 38 16 36 16 36 6z m-69 -143 c-16 -35 -38
-70 -50 -77 -11 -7 -21 -18 -21 -25 0 -7 -19 -31 -41 -52 -23 -22 -39 -34 -35
-27 4 6 2 12 -3 12 -6 0 -11 -7 -11 -15 0 -8 -4 -15 -10 -15 -5 0 -10 -6 -10
-14 0 -9 -19 -18 -51 -25 -52 -11 -79 -9 -40 4 12 3 19 10 16 15 -6 9 60 70
76 70 6 0 8 4 4 9 -6 11 54 71 73 71 6 0 12 5 12 11 0 12 111 131 117 126 2
-2 -10 -33 -26 -68z m152 7 c26 -22 47 -43 47 -47 0 -5 -11 -16 -25 -25 -27
-18 -32 -16 -99 43 -36 33 -36 33 -21 64 18 34 11 37 98 -35z m-44 -114 c3 -1
-6 -14 -20 -28 l-26 -25 -41 33 c-22 18 -41 36 -41 39 -1 4 9 18 20 33 l22 27
41 -38 c22 -21 43 -39 45 -41z m165 40 c-4 -18 -10 -29 -15 -26 -5 3 -9 -15
-9 -39 0 -31 -8 -56 -26 -83 -17 -24 -20 -33 -9 -24 20 17 20 12 -9 -95 -8
-27 -24 -95 -37 -150 -30 -132 -41 -157 -88 -194 -73 -58 -88 -42 -111 124 -7
52 -5 64 12 89 12 16 15 25 8 21 -7 -5 1 12 19 36 17 24 48 68 67 97 20 30 43
62 52 71 10 10 24 29 32 43 32 55 73 113 82 117 5 2 14 14 19 28 13 34 21 24
13 -15z m-34 24 c0 -2 -8 -10 -17 -17 -16 -13 -17 -12 -4 4 13 16 21 21 21 13z
m-53 -84 c-18 -25 -45 -59 -62 -75 -16 -17 -30 -35 -30 -41 0 -6 -11 -28 -24
-49 -16 -26 -26 -35 -31 -27 -5 8 -10 2 -14 -16 -4 -16 -22 -49 -41 -73 l-35
-44 0 52 c0 35 5 53 14 57 8 3 21 25 31 49 9 25 31 56 48 71 18 15 35 35 39
45 4 10 24 29 45 42 21 13 44 31 50 39 7 8 19 15 27 15 10 0 5 -14 -17 -45z
m-173 -51 c19 -21 19 -22 -4 -46 l-23 -24 -38 32 c-44 37 -45 40 -21 71 17 23
18 23 42 6 14 -10 34 -27 44 -39z m-94 -70 c43 -37 44 -39 31 -65 -8 -14 -19
-26 -25 -26 -6 0 -33 20 -61 44 l-50 44 25 21 c14 11 27 20 30 21 3 0 25 -17
50 -39z m-75 -86 c44 -36 80 -70 80 -77 0 -7 -12 -19 -26 -27 -25 -14 -28 -13
-95 44 -38 32 -71 62 -72 67 -7 17 8 58 21 58 7 0 48 -29 92 -65z m-70 -92
l57 -47 -24 -18 c-40 -31 -57 -31 -93 -3 -19 14 -35 32 -35 39 0 22 21 76 30
76 4 0 33 -21 65 -47z"/>
<path d="M599 923 c-13 -15 -12 -15 9 -4 23 12 28 21 13 21 -5 0 -15 -7 -22
-17z"/>
<path d="M467 863 c-4 -3 -7 -11 -7 -17 0 -6 5 -5 12 2 6 6 9 14 7 17 -3 3 -9
2 -12 -2z"/>
<path d="M524 855 c-16 -12 -16 -14 -3 -15 9 0 22 7 29 15 16 19 0 19 -26 0z"/>
<path d="M471 831 c-14 -4 -26 -12 -29 -20 -3 -9 4 -9 27 3 17 9 31 19 31 21
0 3 -1 5 -2 4 -2 -1 -14 -4 -27 -8z"/>
<path d="M375 780 c-3 -5 -2 -10 4 -10 5 0 13 5 16 10 3 6 2 10 -4 10 -5 0
-13 -4 -16 -10z"/>
<path d="M331 747 c-7 -14 -23 -30 -35 -35 -20 -10 -20 -11 -1 -11 21 0 59 42
53 60 -2 6 -10 0 -17 -14z"/>
<path d="M595 759 c-11 -17 1 -21 15 -4 8 9 8 15 2 15 -6 0 -14 -5 -17 -11z"/>
<path d="M885 609 c-4 -6 -5 -12 -2 -15 2 -3 7 2 10 11 7 17 1 20 -8 4z"/>
<path d="M894 582 c-14 -9 -28 -52 -17 -52 8 0 35 51 30 56 -1 2 -7 0 -13 -4z"/>
<path d="M860 491 c-12 -24 -13 -44 -1 -37 8 5 22 56 15 56 -2 0 -8 -9 -14
-19z"/>
<path d="M897 503 c-4 -3 -7 -11 -7 -17 0 -6 5 -5 12 2 6 6 9 14 7 17 -3 3 -9
2 -12 -2z"/>
<path d="M765 470 c-3 -5 -2 -10 4 -10 5 0 13 5 16 10 3 6 2 10 -4 10 -5 0
-13 -4 -16 -10z"/>
<path d="M837 403 c-4 -3 -7 -11 -7 -17 0 -6 5 -5 12 2 6 6 9 14 7 17 -3 3 -9
2 -12 -2z"/>
<path d="M797 335 c-15 -19 -23 -36 -18 -40 5 -3 13 4 16 16 4 11 15 23 25 27
12 4 16 12 12 19 -5 8 -16 1 -35 -22z"/>
<path d="M805 640 c-3 -5 -1 -10 4 -10 6 0 11 5 11 10 0 6 -2 10 -4 10 -3 0
-8 -4 -11 -10z"/>
<path d="M770 604 c0 -8 5 -12 10 -9 6 3 10 10 10 16 0 5 -4 9 -10 9 -5 0 -10
-7 -10 -16z"/>
</g>
</svg>
