<?xml version="1.0" standalone="no"?>
<!DOCTYPE svg PUBLIC "-//W3C//DTD SVG 20010904//EN"
 "http://www.w3.org/TR/2001/REC-SVG-20010904/DTD/svg10.dtd">
<svg version="1.0" xmlns="http://www.w3.org/2000/svg"
 width="115.000000pt" height="115.000000pt" viewBox="0 0 115.000000 115.000000"
 preserveAspectRatio="xMidYMid meet">
<metadata>
Created by potrace 1.11, written by Peter Selinger 2001-2013
</metadata>
<g transform="translate(0.000000,115.000000) scale(0.100000,-0.100000)"
fill="#000000" stroke="none">
<path d="M746 1077 c-9 -23 -16 -45 -16 -49 0 -3 23 -9 51 -13 28 -4 46 -10
40 -14 -13 -9 -62 -8 -77 1 -5 4 -37 -15 -71 -40 -33 -26 -71 -54 -83 -62 -12
-8 -28 -20 -34 -25 -6 -6 -36 -30 -66 -55 -30 -25 -57 -47 -60 -50 -3 -3 -23
-18 -45 -35 -22 -16 -45 -34 -51 -40 -6 -5 -23 -19 -38 -30 -102 -74 -122 -98
-140 -171 -31 -120 -34 -109 42 -117 32 -3 64 3 115 23 40 15 86 28 104 28 30
1 32 -1 28 -31 -7 -53 -17 -171 -16 -182 4 -28 10 -83 10 -103 1 -23 2 -22 34
7 17 17 37 31 44 31 7 0 50 39 97 86 48 47 86 79 86 71 0 -8 6 -17 13 -20 7
-3 25 -41 41 -86 22 -64 36 -88 69 -117 46 -39 43 -40 87 26 8 12 20 28 26 34
32 34 34 72 20 496 -2 74 -5 165 -5 203 -1 52 -4 67 -16 67 -8 0 -15 5 -15 10
0 6 -19 29 -42 52 -49 48 -20 35 36 -16 21 -20 44 -36 50 -36 7 0 18 17 26 38
8 20 16 41 18 45 2 4 0 7 -5 6 -24 -4 -33 4 -39 35 -3 19 -12 37 -20 40 -22 8
-50 -27 -45 -56 1 -10 -11 -10 -27 1 -12 7 -11 13 1 38 21 40 8 61 -30 47 -15
-6 -27 -16 -25 -23 1 -8 -9 -4 -26 8 l-29 21 -17 -43z m62 -28 l27 -21 -30 8
c-37 9 -45 13 -45 25 0 15 20 10 48 -12z m142 7 c0 -3 -4 -8 -10 -11 -5 -3
-10 -1 -10 4 0 6 5 11 10 11 6 0 10 -2 10 -4z m28 -80 c3 -3 -2 -8 -11 -12 -9
-3 -25 3 -38 15 l-22 21 33 -10 c18 -5 35 -12 38 -14z m-97 -48 c21 -24 39
-46 39 -49 0 -3 -9 -14 -20 -24 -20 -18 -22 -17 -98 18 -61 29 -77 42 -78 59
-2 33 0 34 62 37 55 2 58 1 95 -41z m-207 -13 c-7 -16 -24 -21 -24 -6 0 8 7
13 27 20 1 1 0 -6 -3 -14z m-39 -25 c-3 -5 -12 -10 -18 -10 -7 0 -6 4 3 10 19
12 23 12 15 0z m-13 -58 c-24 -53 -52 -87 -89 -106 -18 -9 -34 -16 -37 -16
-10 0 37 96 56 113 19 19 67 47 80 47 4 0 -1 -17 -10 -38z m166 -7 c34 -15 62
-34 62 -41 0 -8 -4 -14 -9 -14 -5 0 -12 -9 -16 -20 -6 -18 -9 -18 -71 13 -57
28 -64 34 -60 57 2 14 5 29 5 34 1 9 0 9 89 -29z m-134 2 c-3 -8 -7 -33 -10
-58 -2 -24 -5 -49 -6 -56 -1 -7 -7 -14 -14 -17 -8 -3 -17 -23 -20 -46 -4 -22
-10 -40 -15 -40 -5 0 -9 -6 -9 -14 0 -7 -7 -20 -17 -27 -15 -13 -15 -12 -4 9
6 12 10 22 7 22 -8 0 32 163 42 169 5 3 17 21 26 39 16 32 30 45 20 19z m-134
-26 c0 -5 -6 -16 -14 -23 -7 -8 -23 -32 -34 -54 -20 -39 -60 -80 -69 -71 -2 3
0 15 7 26 6 12 9 25 6 30 -3 5 13 24 35 42 23 19 46 39 53 46 14 15 16 16 16
4z m409 -23 c-1 -31 -1 -31 -8 -8 -5 14 -6 28 -4 33 9 15 13 6 12 -25z m-3
-132 c-6 -29 -46 -120 -51 -115 -7 7 -18 72 -16 97 0 13 11 46 23 75 l22 51
13 -44 c7 -24 11 -53 9 -64z m-185 69 c45 -23 48 -27 34 -41 -8 -9 -15 -20
-15 -25 0 -15 -28 -10 -70 11 -37 19 -38 21 -27 50 6 16 15 30 20 30 4 0 30
-11 58 -25z m114 -25 c-9 -17 -13 -35 -10 -40 3 -5 -3 -18 -15 -30 -11 -11
-20 -22 -20 -25 0 -2 -12 -18 -27 -34 -16 -16 -36 -40 -47 -52 -16 -20 -18
-21 -11 -4 3 11 8 28 10 37 2 10 13 27 24 40 12 12 21 29 21 38 0 9 18 36 40
60 22 25 40 50 41 55 0 6 3 5 5 -2 3 -6 -2 -26 -11 -43z m-309 8 c-9 -13 -26
-42 -37 -66 -12 -23 -25 -45 -30 -48 -5 -2 -17 -25 -28 -50 -12 -25 -25 -43
-30 -39 -6 3 -13 -5 -16 -18 -5 -18 -20 -28 -63 -43 -88 -29 -85 -30 -64 13
11 21 23 53 27 71 3 17 10 32 13 32 4 0 32 23 62 50 30 27 58 50 62 50 3 0 2
-16 -4 -36 -5 -20 -11 -44 -13 -53 -2 -9 -6 -23 -10 -32 -3 -10 -2 -20 4 -24
6 -3 12 -3 12 2 1 4 3 17 5 28 1 11 6 31 9 45 4 14 8 32 9 40 10 54 19 69 47
75 16 4 31 11 34 16 4 5 11 9 17 9 6 0 3 -10 -6 -22z m-152 -13 c-1 -14 -7
-32 -13 -39 -6 -7 -9 -15 -6 -18 3 -3 -4 -13 -15 -23 -18 -17 -21 -17 -45 -1
-14 9 -25 20 -25 24 1 4 24 23 53 44 29 20 53 37 53 37 1 1 0 -10 -2 -24z
m161 -42 c-6 -24 -24 -47 -32 -39 -1 1 3 17 9 34 15 39 33 43 23 5z m128 -24
c23 -12 43 -23 45 -24 5 -5 -21 -55 -29 -55 -7 0 -75 29 -88 37 -5 3 20 63 26
63 2 0 23 -10 46 -21z m-371 -32 c4 -7 8 -15 8 -18 0 -11 -50 -17 -56 -7 -3 4
-10 6 -15 3 -20 -13 -30 7 -12 26 19 20 61 17 75 -4z m606 -121 c-10 -11 -18
-23 -18 -28 0 -4 -4 -8 -10 -8 -14 0 -3 79 15 106 8 13 16 34 17 46 1 13 4 -4
7 -37 5 -49 3 -64 -11 -79z m-386 81 c-6 -7 -24 -20 -40 -30 -29 -17 -30 -17
-25 3 3 11 19 32 37 47 27 22 31 24 34 9 2 -9 -1 -22 -6 -29z m324 -69 c-8
-14 -8 -20 2 -26 17 -11 9 -168 -9 -191 -8 -9 -23 -36 -35 -60 l-20 -44 -26
69 -26 69 32 45 c17 24 41 56 54 70 24 27 28 40 12 40 -6 0 -14 -8 -17 -17 -4
-10 -16 -27 -28 -38 -12 -11 -25 -29 -28 -39 -4 -10 -10 -16 -13 -13 -3 3 2
20 12 38 9 19 18 41 19 49 1 8 10 33 19 55 10 22 20 51 23 64 8 46 16 44 29
-4 9 -37 9 -53 0 -67z m-593 63 c4 -1 12 -1 17 -1 17 0 11 -28 -9 -42 -12 -9
-18 -24 -16 -45 2 -42 -7 -56 -35 -51 -35 5 -34 21 3 42 21 12 27 20 18 24 -7
2 -17 -2 -22 -9 -5 -8 -9 -10 -9 -6 0 5 -7 1 -16 -7 -23 -23 -37 -20 -23 5 6
12 12 31 14 43 7 53 25 71 55 56 8 -5 18 -8 23 -9z m535 -21 c-5 -17 -14 -32
-18 -35 -9 -6 -6 31 5 57 12 30 24 9 13 -22z m-114 -50 c-4 -8 -7 -23 -8 -32
-1 -23 -5 -23 -73 9 -32 15 -59 28 -61 29 -1 1 5 15 14 31 l18 30 58 -26 c43
-19 57 -30 52 -41z m-164 35 c-14 -17 -30 -20 -30 -6 0 5 8 12 18 14 9 3 19 5
21 6 2 0 -2 -6 -9 -14z m235 -92 c-6 -35 -24 -46 -26 -15 0 9 -2 26 -4 38 -3
11 3 30 13 42 l17 21 3 -26 c2 -14 1 -41 -3 -60z m-275 73 c0 -3 -4 -8 -10
-11 -5 -3 -10 -1 -10 4 0 6 5 11 10 11 6 0 10 -2 10 -4z m113 -79 c53 -25 97
-48 97 -50 0 -7 -37 -47 -44 -47 -3 0 -45 18 -91 40 -64 29 -85 44 -85 59 0
25 10 52 19 47 3 -2 50 -24 104 -49z m342 -15 c0 -58 -6 -66 -38 -56 -11 3
-16 13 -14 27 4 27 26 69 41 79 6 4 11 8 11 8 0 0 0 -26 0 -58z m-216 5 c1 -5
-3 -5 -9 -2 -5 3 -10 16 -9 28 0 21 1 21 9 2 5 -11 9 -24 9 -28z m4 -37 c3
-11 1 -18 -4 -14 -5 3 -9 12 -9 20 0 20 7 17 13 -6z m-163 -70 c22 -11 40 -23
40 -27 0 -3 -14 -19 -30 -35 l-31 -29 -42 23 c-38 21 -42 26 -39 58 2 19 6 38
8 42 5 8 35 -2 94 -32z m372 12 c5 -5 8 -26 6 -46 l-3 -37 -32 42 c-18 23 -30
45 -27 50 5 9 44 3 56 -9z m-18 -79 c25 -27 27 -34 15 -47 -27 -30 -35 -41
-42 -60 -10 -26 -17 -16 -22 35 -3 24 -7 53 -9 64 -4 24 13 61 23 49 3 -5 19
-23 35 -41z m-66 -79 l3 -56 -25 26 c-24 23 -27 56 -5 56 5 0 9 7 9 15 0 8 3
15 8 15 4 0 8 -25 10 -56z"/>
</g>
</svg>
